<?xml version="1.0" encoding="UTF-8"?>
<svg width="16px" height="16px" viewBox="0 0 16 16" version="1.1" xmlns="http://www.w3.org/2000/svg" xmlns:xlink="http://www.w3.org/1999/xlink">
    <!-- Generator: Sketch 64 (93537) - https://sketch.com -->
    <title>ic-back</title>
    <desc>Created with Sketch.</desc>
    <g id="🛠-Symbols" stroke="none" stroke-width="1" fill="none" fill-rule="evenodd">
        <g id="Icons/Navigation/Back" transform="translate(-4.000000, -4.000000)" fill="#0D1F2D">
            <path d="M12.3771236,4.15620972 C12.5854032,4.36448934 12.5854032,4.70217733 12.3771236,4.91045695 L5.821,11.466 L19.4666667,11.4666667 C19.7612185,11.4666667 20,11.7054481 20,12 C20,12.2945519 19.7612185,12.5333333 19.4666667,12.5333333 L5.82,12.533 L12.3771236,19.0895431 C12.5854032,19.2978227 12.5854032,19.6355107 12.3771236,19.8437903 C12.168844,20.0520699 11.831156,20.0520699 11.6228764,19.8437903 L4.15620972,12.3771236 L4.1029024,12.3149797 C4.10149593,12.313061 4.10010199,12.3111325 4.09872068,12.3091944 L4.15620972,12.3771236 C4.12798755,12.3489014 4.10358952,12.3183033 4.08301563,12.285973 C4.07159231,12.2679832 4.06089521,12.248701 4.05140225,12.2287355 C4.04748923,12.2205555 4.04365802,12.2119059 4.04006805,12.2031803 C4.03305225,12.1861618 4.02691363,12.1687724 4.02167611,12.1509968 C4.01821225,12.1390604 4.01520129,12.127331 4.01259487,12.1155302 C4.00900796,12.0995906 4.00610854,12.0827962 4.00401313,12.0657531 C4.00193305,12.0486158 4.0006571,12.0315657 4.00019586,12.0144977 C4.00006328,12.0095753 4,12.004795 4,12 L4.00016977,11.986502 C4.0006076,11.9691001 4.00189223,11.9517155 4.00402369,11.9344154 L4,12 C4,11.9601277 4.00437541,11.9212774 4.01267229,11.8839029 C4.01520129,11.872669 4.01821225,11.8609396 4.02162774,11.8493036 C4.02691363,11.8312276 4.03305225,11.8138382 4.04003912,11.7968877 C4.04365802,11.7880941 4.04748923,11.7794445 4.05156168,11.7708809 C4.06089521,11.751299 4.07159231,11.7320168 4.08339969,11.7135117 C4.08785883,11.7064163 4.09291396,11.6989016 4.098181,11.6914912 C4.11598698,11.6665792 4.13522834,11.6438578 4.15620972,11.6228764 L11.6228764,4.15620972 C11.831156,3.94793009 12.168844,3.94793009 12.3771236,4.15620972 Z" id="ic-back"></path>
        </g>
    </g>
</svg>